<?xml version="1.0" encoding="UTF-8" standalone="no"?>
<!DOCTYPE svg PUBLIC "-//W3C//DTD SVG 1.1//EN" "http://www.w3.org/Graphics/SVG/1.1/DTD/svg11.dtd">
<svg xmlns="http://www.w3.org/2000/svg" version="1.1" viewBox="0.00 0.00 1024.00 1024.00">
<g stroke-width="2.00" fill="none" stroke-linecap="butt">
<path stroke="#86898a" vector-effect="non-scaling-stroke" d="
  M 423.42 539.17
  Q 426.21 533.66 428.96 527.73
  Q 462.78 454.94 496.51 382.12
  C 507.57 358.25 538.35 359.49 549.01 382.38
  Q 559.65 405.22 570.27 428.06
  C 586.69 463.35 600.09 494.11 619.05 534.67
  C 631.96 562.28 644.09 590.24 656.89 617.90
  Q 669.90 646.00 682.41 674.31
  C 687.62 686.09 688.85 693.88 689.24 705.11
  A 0.35 0.35 0.0 0 0 689.82 705.37
  C 713.05 685.71 728.75 659.04 732.47 628.75
  C 735.22 606.33 729.60 587.27 720.18 567.29
  Q 675.13 471.76 629.69 376.42
  C 625.73 368.11 620.31 355.80 615.42 346.31
  C 593.22 303.21 548.43 279.20 499.98 289.94
  Q 461.90 298.38 438.66 331.39
  Q 432.31 340.41 430.06 345.07
  Q 411.31 383.88 360.65 491.46
  Q 345.76 523.07 330.34 554.43
  Q 324.44 566.44 319.17 578.74
  C 309.78 600.69 309.71 626.59 316.87 649.05
  C 323.51 669.88 337.09 688.84 353.35 703.49
  A 0.46 0.46 0.0 0 0 354.12 703.17
  Q 354.71 688.91 360.53 675.65
  C 376.16 640.03 393.13 605.62 409.53 569.64
  Q 409.60 569.49 409.76 569.49
  L 609.30 569.48
  A 0.59 0.58 -13.1 0 0 609.83 568.64
  L 595.78 540.13
  Q 595.58 539.72 595.12 539.72
  L 423.77 539.73
  A 0.39 0.39 0.0 0 1 423.42 539.17"
/>
<path stroke="#86898a" vector-effect="non-scaling-stroke" d="
  M 521.91 451.23
  A 0.35 0.35 0.0 0 1 522.54 451.23
  Q 532.48 471.98 542.03 492.65
  C 544.84 498.74 549.59 508.29 552.81 516.40
  A 0.49 0.49 0.0 0 0 553.27 516.72
  L 584.75 516.58
  A 0.72 0.72 0.0 0 0 585.39 515.54
  Q 584.35 513.41 583.32 511.07
  Q 570.05 481.06 556.49 451.19
  C 550.86 438.77 547.52 427.59 533.64 421.87
  C 521.87 417.02 508.29 420.45 500.00 429.72
  Q 496.69 433.42 491.68 444.53
  Q 475.46 480.48 458.88 516.16
  A 0.43 0.42 -77.7 0 0 459.26 516.76
  L 490.17 516.77
  A 2.48 2.47 -77.7 0 0 492.42 515.32
  L 521.91 451.23"
/>
<path stroke="#86898a" vector-effect="non-scaling-stroke" d="
  M 568.34 619.45
  C 594.43 624.68 613.35 641.49 624.86 665.18
  Q 639.76 695.83 631.24 728.51
  C 629.85 733.85 627.26 739.65 625.12 745.11
  A 0.18 0.18 0.0 0 0 625.36 745.34
  C 638.36 740.24 649.00 734.01 661.81 725.86
  Q 662.22 725.60 662.31 725.13
  C 668.91 691.99 658.46 658.13 638.84 631.16
  C 620.53 606.00 587.99 588.22 556.75 588.04
  Q 523.50 587.85 490.26 587.98
  C 453.72 588.12 420.08 608.17 400.73 638.75
  C 384.45 664.47 378.30 693.27 381.65 723.55
  Q 381.70 724.05 382.10 724.35
  Q 399.40 737.14 419.51 744.76
  Q 420.38 745.09 419.96 744.26
  C 402.23 708.80 411.17 666.19 439.06 638.93
  C 451.64 626.65 470.05 618.28 487.75 618.24
  Q 519.66 618.16 551.59 618.24
  Q 562.44 618.27 568.34 619.45"
/>
<path stroke="#86898a" vector-effect="non-scaling-stroke" d="
  M 497.32 340.33
  C 513.20 333.23 534.43 333.24 549.93 341.58
  Q 568.43 351.53 577.46 371.17
  Q 602.60 425.92 627.45 480.81
  C 636.67 501.16 648.21 525.44 654.48 539.48
  C 665.39 563.98 674.14 583.51 684.39 605.30
  C 691.89 621.26 699.12 637.57 706.78 653.46
  Q 707.27 654.48 707.45 653.36
  C 710.81 632.83 708.21 614.19 699.35 595.20
  Q 693.88 583.49 688.36 571.80
  Q 670.08 533.14 651.96 494.40
  Q 632.08 451.89 611.60 409.67
  C 605.88 397.89 600.32 386.13 594.87 374.03
  Q 588.71 360.36 583.93 352.04
  Q 570.42 328.54 543.27 320.27
  C 513.68 311.25 482.67 321.91 464.75 346.45
  Q 460.56 352.19 454.89 363.81
  C 433.65 407.36 414.27 450.21 397.49 484.79
  Q 368.78 544.00 340.76 603.54
  C 333.13 619.76 332.98 637.68 336.39 654.74
  A 0.42 0.41 -22.6 0 0 337.03 655.00
  Q 337.47 654.71 337.77 654.04
  Q 348.62 629.72 360.10 605.71
  C 372.67 579.43 384.66 552.83 396.78 526.34
  C 403.89 510.82 411.71 494.54 418.90 478.49
  C 420.78 474.29 423.35 469.51 424.94 465.95
  Q 440.71 430.85 457.32 396.15
  C 467.24 375.43 474.50 350.54 497.32 340.33"
/>
</g>
<path fill="#e0e0" d="
  M 0.00 0.00
  L 1024.00 0.00
  L 1024.00 1024.00
  L 0.00 1024.00
  L 0.00 0.00
  Z
  M 423.42 539.17
  Q 426.21 533.66 428.96 527.73
  Q 462.78 454.94 496.51 382.12
  C 507.57 358.25 538.35 359.49 549.01 382.38
  Q 559.65 405.22 570.27 428.06
  C 586.69 463.35 600.09 494.11 619.05 534.67
  C 631.96 562.28 644.09 590.24 656.89 617.90
  Q 669.90 646.00 682.41 674.31
  C 687.62 686.09 688.85 693.88 689.24 705.11
  A 0.35 0.35 0.0 0 0 689.82 705.37
  C 713.05 685.71 728.75 659.04 732.47 628.75
  C 735.22 606.33 729.60 587.27 720.18 567.29
  Q 675.13 471.76 629.69 376.42
  C 625.73 368.11 620.31 355.80 615.42 346.31
  C 593.22 303.21 548.43 279.20 499.98 289.94
  Q 461.90 298.38 438.66 331.39
  Q 432.31 340.41 430.06 345.07
  Q 411.31 383.88 360.65 491.46
  Q 345.76 523.07 330.34 554.43
  Q 324.44 566.44 319.17 578.74
  C 309.78 600.69 309.71 626.59 316.87 649.05
  C 323.51 669.88 337.09 688.84 353.35 703.49
  A 0.46 0.46 0.0 0 0 354.12 703.17
  Q 354.71 688.91 360.53 675.65
  C 376.16 640.03 393.13 605.62 409.53 569.64
  Q 409.60 569.49 409.76 569.49
  L 609.30 569.48
  A 0.59 0.58 -13.1 0 0 609.83 568.64
  L 595.78 540.13
  Q 595.58 539.72 595.12 539.72
  L 423.77 539.73
  A 0.39 0.39 0.0 0 1 423.42 539.17
  Z
  M 521.91 451.23
  A 0.35 0.35 0.0 0 1 522.54 451.23
  Q 532.48 471.98 542.03 492.65
  C 544.84 498.74 549.59 508.29 552.81 516.40
  A 0.49 0.49 0.0 0 0 553.27 516.72
  L 584.75 516.58
  A 0.72 0.72 0.0 0 0 585.39 515.54
  Q 584.35 513.41 583.32 511.07
  Q 570.05 481.06 556.49 451.19
  C 550.86 438.77 547.52 427.59 533.64 421.87
  C 521.87 417.02 508.29 420.45 500.00 429.72
  Q 496.69 433.42 491.68 444.53
  Q 475.46 480.48 458.88 516.16
  A 0.43 0.42 -77.7 0 0 459.26 516.76
  L 490.17 516.77
  A 2.48 2.47 -77.7 0 0 492.42 515.32
  L 521.91 451.23
  Z
  M 568.34 619.45
  C 594.43 624.68 613.35 641.49 624.86 665.18
  Q 639.76 695.83 631.24 728.51
  C 629.85 733.85 627.26 739.65 625.12 745.11
  A 0.18 0.18 0.0 0 0 625.36 745.34
  C 638.36 740.24 649.00 734.01 661.81 725.86
  Q 662.22 725.60 662.31 725.13
  C 668.91 691.99 658.46 658.13 638.84 631.16
  C 620.53 606.00 587.99 588.22 556.75 588.04
  Q 523.50 587.85 490.26 587.98
  C 453.72 588.12 420.08 608.17 400.73 638.75
  C 384.45 664.47 378.30 693.27 381.65 723.55
  Q 381.70 724.05 382.10 724.35
  Q 399.40 737.14 419.51 744.76
  Q 420.38 745.09 419.96 744.26
  C 402.23 708.80 411.17 666.19 439.06 638.93
  C 451.64 626.65 470.05 618.28 487.75 618.24
  Q 519.66 618.16 551.59 618.24
  Q 562.44 618.27 568.34 619.45
  Z"
/>
<path fill="#12171c" d="
  M 423.42 539.17
  A 0.39 0.39 0.0 0 0 423.77 539.73
  L 595.12 539.72
  Q 595.58 539.72 595.78 540.13
  L 609.83 568.64
  A 0.59 0.58 -13.1 0 1 609.30 569.48
  L 409.76 569.49
  Q 409.60 569.49 409.53 569.64
  C 393.13 605.62 376.16 640.03 360.53 675.65
  Q 354.71 688.91 354.12 703.17
  A 0.46 0.46 0.0 0 1 353.35 703.49
  C 337.09 688.84 323.51 669.88 316.87 649.05
  C 309.71 626.59 309.78 600.69 319.17 578.74
  Q 324.44 566.44 330.34 554.43
  Q 345.76 523.07 360.65 491.46
  Q 411.31 383.88 430.06 345.07
  Q 432.31 340.41 438.66 331.39
  Q 461.90 298.38 499.98 289.94
  C 548.43 279.20 593.22 303.21 615.42 346.31
  C 620.31 355.80 625.73 368.11 629.69 376.42
  Q 675.13 471.76 720.18 567.29
  C 729.60 587.27 735.22 606.33 732.47 628.75
  C 728.75 659.04 713.05 685.71 689.82 705.37
  A 0.35 0.35 0.0 0 1 689.24 705.11
  C 688.85 693.88 687.62 686.09 682.41 674.31
  Q 669.90 646.00 656.89 617.90
  C 644.09 590.24 631.96 562.28 619.05 534.67
  C 600.09 494.11 586.69 463.35 570.27 428.06
  Q 559.65 405.22 549.01 382.38
  C 538.35 359.49 507.57 358.25 496.51 382.12
  Q 462.78 454.94 428.96 527.73
  Q 426.21 533.66 423.42 539.17
  Z
  M 497.32 340.33
  C 513.20 333.23 534.43 333.24 549.93 341.58
  Q 568.43 351.53 577.46 371.17
  Q 602.60 425.92 627.45 480.81
  C 636.67 501.16 648.21 525.44 654.48 539.48
  C 665.39 563.98 674.14 583.51 684.39 605.30
  C 691.89 621.26 699.12 637.57 706.78 653.46
  Q 707.27 654.48 707.45 653.36
  C 710.81 632.83 708.21 614.19 699.35 595.20
  Q 693.88 583.49 688.36 571.80
  Q 670.08 533.14 651.96 494.40
  Q 632.08 451.89 611.60 409.67
  C 605.88 397.89 600.32 386.13 594.87 374.03
  Q 588.71 360.36 583.93 352.04
  Q 570.42 328.54 543.27 320.27
  C 513.68 311.25 482.67 321.91 464.75 346.45
  Q 460.56 352.19 454.89 363.81
  C 433.65 407.36 414.27 450.21 397.49 484.79
  Q 368.78 544.00 340.76 603.54
  C 333.13 619.76 332.98 637.68 336.39 654.74
  A 0.42 0.41 -22.6 0 0 337.03 655.00
  Q 337.47 654.71 337.77 654.04
  Q 348.62 629.72 360.10 605.71
  C 372.67 579.43 384.66 552.83 396.78 526.34
  C 403.89 510.82 411.71 494.54 418.90 478.49
  C 420.78 474.29 423.35 469.51 424.94 465.95
  Q 440.71 430.85 457.32 396.15
  C 467.24 375.43 474.50 350.54 497.32 340.33
  Z"
/>
<path fill="#e0e0" d="
  M 497.32 340.33
  C 474.50 350.54 467.24 375.43 457.32 396.15
  Q 440.71 430.85 424.94 465.95
  C 423.35 469.51 420.78 474.29 418.90 478.49
  C 411.71 494.54 403.89 510.82 396.78 526.34
  C 384.66 552.83 372.67 579.43 360.10 605.71
  Q 348.62 629.72 337.77 654.04
  Q 337.47 654.71 337.03 655.00
  A 0.42 0.41 -22.6 0 1 336.39 654.74
  C 332.98 637.68 333.13 619.76 340.76 603.54
  Q 368.78 544.00 397.49 484.79
  C 414.27 450.21 433.65 407.36 454.89 363.81
  Q 460.56 352.19 464.75 346.45
  C 482.67 321.91 513.68 311.25 543.27 320.27
  Q 570.42 328.54 583.93 352.04
  Q 588.71 360.36 594.87 374.03
  C 600.32 386.13 605.88 397.89 611.60 409.67
  Q 632.08 451.89 651.96 494.40
  Q 670.08 533.14 688.36 571.80
  Q 693.88 583.49 699.35 595.20
  C 708.21 614.19 710.81 632.83 707.45 653.36
  Q 707.27 654.48 706.78 653.46
  C 699.12 637.57 691.89 621.26 684.39 605.30
  C 674.14 583.51 665.39 563.98 654.48 539.48
  C 648.21 525.44 636.67 501.16 627.45 480.81
  Q 602.60 425.92 577.46 371.17
  Q 568.43 351.53 549.93 341.58
  C 534.43 333.24 513.20 333.23 497.32 340.33
  Z"
/>
<path fill="#12171c" d="
  M 521.91 451.23
  L 492.42 515.32
  A 2.48 2.47 -77.7 0 1 490.17 516.77
  L 459.26 516.76
  A 0.43 0.42 -77.7 0 1 458.88 516.16
  Q 475.46 480.48 491.68 444.53
  Q 496.69 433.42 500.00 429.72
  C 508.29 420.45 521.87 417.02 533.64 421.87
  C 547.52 427.59 550.86 438.77 556.49 451.19
  Q 570.05 481.06 583.32 511.07
  Q 584.35 513.41 585.39 515.54
  A 0.72 0.72 0.0 0 1 584.75 516.58
  L 553.27 516.72
  A 0.49 0.49 0.0 0 1 552.81 516.40
  C 549.59 508.29 544.84 498.74 542.03 492.65
  Q 532.48 471.98 522.54 451.23
  A 0.35 0.35 0.0 0 0 521.91 451.23
  Z"
/>
<path fill="#12171c" d="
  M 624.86 665.18
  C 613.35 641.49 594.43 624.68 568.34 619.45
  Q 562.44 618.27 551.59 618.24
  Q 519.66 618.16 487.75 618.24
  C 470.05 618.28 451.64 626.65 439.06 638.93
  C 411.17 666.19 402.23 708.80 419.96 744.26
  Q 420.38 745.09 419.51 744.76
  Q 399.40 737.14 382.10 724.35
  Q 381.70 724.05 381.65 723.55
  C 378.30 693.27 384.45 664.47 400.73 638.75
  C 420.08 608.17 453.72 588.12 490.26 587.98
  Q 523.50 587.85 556.75 588.04
  C 587.99 588.22 620.53 606.00 638.84 631.16
  C 658.46 658.13 668.91 691.99 662.31 725.13
  Q 662.22 725.60 661.81 725.86
  C 649.00 734.01 638.36 740.24 625.36 745.34
  A 0.18 0.18 0.0 0 1 625.12 745.11
  C 627.26 739.65 629.85 733.85 631.24 728.51
  Q 639.76 695.83 624.86 665.18
  Z"
/>
</svg>
